<svg width="256" height="74" viewBox="0 0 256 74" fill="none" xmlns="http://www.w3.org/2000/svg">
<path d="M26.4221 51.082H18.4307L21.7425 35.379L13.2111 51.082H8.31542L6.69553 34.8337L3.23977 51.082H0L4.85966 28H14.039L15.1549 41.0131L22.0665 28H31.3178L26.4221 51.082Z" fill="#18162D"/>
<path d="M29.6529 51.082L34.5126 28H44.1959C45.6838 28 46.9797 28.1575 48.0836 28.4725C49.2115 28.7633 50.1355 29.2601 50.8554 29.9629C51.5994 30.6656 52.1513 31.5865 52.5113 32.7254C52.8953 33.8644 53.0873 35.2578 53.0873 36.9056C53.0873 38.6747 52.8593 40.4073 52.4033 42.1036C51.9713 43.7999 51.2394 45.3145 50.2075 46.6473C49.1755 47.9801 47.8196 49.0585 46.1398 49.8824C44.4839 50.6821 42.432 51.082 39.9842 51.082H29.6529ZM39.5162 48.5375C40.3082 48.5375 41.0041 48.2104 41.6041 47.5561C42.228 46.8775 42.756 46.0294 43.188 45.0116C43.6439 43.9696 44.0159 42.8306 44.3039 41.5947C44.6159 40.3346 44.8558 39.123 45.0238 37.9598C45.2158 36.7966 45.3478 35.7546 45.4198 34.8337C45.5158 33.9129 45.5638 33.2586 45.5638 32.8708C45.5638 32.1196 45.4078 31.538 45.0958 31.1261C44.8079 30.6899 44.2919 30.4718 43.5479 30.4718H41.8201L37.9683 48.5375H39.5162Z" fill="#18162D"/>
<path d="M72.3934 51.082H63.97L63.4661 45.3024H56.8065L54.2507 51.082H50.759L61.3782 28H69.9096L72.3934 51.082ZM57.9945 42.6489H63.2141L62.3861 32.7618L57.9945 42.6489Z" fill="#18162D"/>
<path d="M114.363 34.8574C114.436 34.504 114.473 34.0209 114.473 33.4082C114.473 33.0547 114.448 32.713 114.4 32.3831C114.351 32.0296 114.265 31.7233 114.143 31.4641C114.021 31.1813 113.838 30.9692 113.594 30.8278C113.349 30.6629 113.032 30.5804 112.641 30.5804C112.201 30.5804 111.798 30.6746 111.432 30.8632C111.066 31.0517 110.736 31.2991 110.443 31.6055C110.174 31.8882 109.954 32.2299 109.783 32.6305C109.637 33.0076 109.564 33.4082 109.564 33.8324C109.564 34.445 109.722 34.9163 110.04 35.2463C110.382 35.5762 110.821 35.8472 111.359 36.0592C111.896 36.2713 112.507 36.4481 113.191 36.5895C113.874 36.7309 114.583 36.8958 115.315 37.0843C115.926 37.2493 116.537 37.4614 117.147 37.7206C117.758 37.9798 118.295 38.3333 118.759 38.781C119.248 39.2052 119.639 39.7707 119.932 40.4777C120.225 41.1611 120.371 42.0212 120.371 43.0581C120.371 44.5427 120.066 45.7916 119.455 46.8049C118.845 47.8182 118.002 48.643 116.927 49.2792C115.853 49.9155 114.571 50.375 113.081 50.6578C111.615 50.9406 110.015 51.082 108.281 51.082C106.523 51.082 105.082 50.9759 103.958 50.7638C102.859 50.5282 101.992 50.2808 101.357 50.0215C100.6 49.7152 100.038 49.3617 99.6719 48.9611L100.918 44.1185H107.365C107.341 44.3306 107.317 44.6251 107.292 45.0022C107.268 45.3557 107.256 45.6384 107.256 45.8505C107.256 46.1333 107.292 46.4279 107.365 46.7342C107.439 47.0406 107.549 47.3233 107.695 47.5826C107.866 47.8418 108.098 48.0539 108.391 48.2188C108.684 48.3838 109.051 48.4662 109.49 48.4662C109.979 48.4662 110.406 48.3602 110.773 48.1481C111.163 47.936 111.481 47.6768 111.725 47.3705C111.994 47.0406 112.189 46.6871 112.311 46.31C112.458 45.9094 112.531 45.5206 112.531 45.1436C112.531 44.6251 112.397 44.1892 112.128 43.8357C111.884 43.4822 111.542 43.1877 111.102 42.952C110.663 42.6928 110.15 42.4807 109.564 42.3158C109.002 42.1272 108.416 41.9387 107.805 41.7502C107.219 41.5853 106.596 41.3849 105.937 41.1493C105.302 40.9136 104.715 40.5837 104.178 40.1596C103.641 39.7354 103.189 39.2052 102.823 38.5689C102.481 37.9091 102.31 37.0725 102.31 36.0592C102.31 34.5511 102.7 33.2904 103.482 32.2771C104.288 31.2402 105.289 30.4036 106.486 29.7674C107.707 29.1311 109.038 28.6834 110.48 28.4242C111.921 28.1414 113.288 28 114.583 28C116.292 28 117.758 28.2003 118.979 28.6009C120.225 28.9779 121.165 29.4257 121.8 29.9441L120.445 34.8574H114.363Z" fill="#18162D"/>
<path d="M141.031 50.7992H133.117L135.316 40.7958H130.809L128.611 50.7992H120.698L125.644 28.3535H133.594L131.432 38.1094H135.902L138.063 28.3535H146.05L141.031 50.7992Z" fill="#18162D"/>
<path d="M152.279 50.7992H144.365L149.311 28.3535H157.261L152.279 50.7992Z" fill="#18162D"/>
<path d="M167.342 41.114C168.075 41.114 168.686 40.8194 169.174 40.2303C169.687 39.6411 170.102 38.9224 170.42 38.0741C170.762 37.2257 171.006 36.342 171.153 35.423C171.299 34.504 171.372 33.7027 171.372 33.0194C171.372 32.3831 171.262 31.8529 171.043 31.4287C170.823 30.981 170.347 30.7571 169.614 30.7571H167.965L165.657 41.114H167.342ZM165.144 43.3762L163.496 50.7992H155.582L160.528 28.3535H168.991C170.383 28.3535 171.653 28.4242 172.801 28.5656C173.949 28.707 174.938 28.9897 175.769 29.4139C176.599 29.8381 177.246 30.4508 177.71 31.252C178.174 32.0296 178.407 33.0783 178.407 34.3979C178.407 35.6233 178.199 36.7898 177.784 37.8973C177.393 38.9813 176.746 39.9357 175.842 40.7605C174.963 41.5617 173.815 42.1979 172.398 42.6692C170.982 43.1405 169.26 43.3762 167.233 43.3762H165.144Z" fill="#18162D"/>
<path d="M188.577 41.114C189.31 41.114 189.92 40.8194 190.409 40.2303C190.922 39.6411 191.337 38.9224 191.654 38.0741C191.996 37.2257 192.241 36.342 192.387 35.423C192.534 34.504 192.607 33.7027 192.607 33.0194C192.607 32.3831 192.497 31.8529 192.277 31.4287C192.057 30.981 191.581 30.7571 190.848 30.7571H189.2L186.892 41.114H188.577ZM186.379 43.3762L184.73 50.7992H176.817L181.763 28.3535H190.226C191.618 28.3535 192.888 28.4242 194.036 28.5656C195.184 28.707 196.173 28.9897 197.003 29.4139C197.834 29.8381 198.481 30.4508 198.945 31.252C199.409 32.0296 199.641 33.0783 199.641 34.3979C199.641 35.6233 199.434 36.7898 199.018 37.8973C198.628 38.9813 197.98 39.9357 197.077 40.7605C196.197 41.5617 195.049 42.1979 193.633 42.6692C192.216 43.1405 190.494 43.3762 188.467 43.3762H186.379Z" fill="#18162D"/>
<path d="M205.965 50.7992H198.051L202.997 28.3535H210.947L205.965 50.7992Z" fill="#18162D"/>
<path d="M228.795 50.7992H220.223L216.156 34.5746L212.566 50.7992H209.268L214.214 28.3535H222.97L226.817 44.7901L230.444 28.3535H233.815L228.795 50.7992Z" fill="#18162D"/>
<path d="M245.119 40.5484H254.608L252.483 50.7992H248.16L247.464 48.5369H247.317C246.682 49.2439 245.925 49.8448 245.046 50.3397C244.191 50.8345 243.067 51.082 241.675 51.082C240.6 51.082 239.562 50.917 238.561 50.5871C237.584 50.2336 236.705 49.6916 235.923 48.9611C235.166 48.207 234.555 47.2291 234.091 46.0273C233.627 44.8254 233.395 43.3762 233.395 41.6795C233.395 39.8414 233.688 38.0976 234.275 36.4481C234.861 34.7985 235.74 33.3493 236.912 32.1003C238.085 30.8278 239.55 29.8263 241.309 29.0958C243.067 28.3653 245.119 28 247.464 28C249.271 28 250.846 28.2003 252.19 28.6009C253.533 29.0015 254.803 29.4493 256 29.9441L254.608 36.8015H248.416C248.441 36.5423 248.477 36.236 248.526 35.8825C248.575 35.529 248.611 35.1638 248.636 34.7867C248.66 34.3861 248.685 33.9973 248.709 33.6203C248.734 33.2432 248.746 32.9133 248.746 32.6305C248.746 32.442 248.734 32.2299 248.709 31.9943C248.685 31.7351 248.624 31.4876 248.526 31.252C248.428 31.0163 248.282 30.8278 248.086 30.6864C247.891 30.5215 247.61 30.439 247.244 30.439C246.609 30.439 246.023 30.6982 245.485 31.2166C244.972 31.7115 244.508 32.3831 244.093 33.2314C243.678 34.0562 243.311 34.9988 242.994 36.0592C242.701 37.1197 242.444 38.2037 242.225 39.3112C242.029 40.3952 241.87 41.4674 241.748 42.5279C241.651 43.5647 241.602 44.472 241.602 45.2496C241.602 45.4853 241.614 45.7798 241.638 46.1333C241.663 46.4868 241.736 46.8403 241.858 47.1937C242.005 47.5236 242.2 47.8182 242.444 48.0774C242.713 48.3131 243.092 48.4309 243.58 48.4309C244.386 48.4309 245.168 48.0067 245.925 47.1584C246.682 46.31 247.256 44.8961 247.647 42.9167H244.569L245.119 40.5484Z" fill="#18162D"/>
<path d="M87.0166 39.1963C87.2308 55.1251 74.2546 62.5552 68.0075 64.2791C76.8427 61.841 90.2294 53.6771 90.2294 39.1963C90.2294 33.2488 89.1584 24.8565 79.52 17.4751C71.3322 11.2046 59.8045 9.91045 53.9579 9.72187C53.8658 9.7189 53.7794 9.75059 53.7108 9.80986L44.1137 18.1033C44.0001 18.2015 44.1038 18.382 44.2508 18.3426C50.4418 16.6835 56.1624 16.4489 62.3851 16.6993C68.8107 16.9579 86.7732 21.0953 87.0166 39.1963Z" fill="#18162D"/>
<path d="M91.1755 39.9564C90.9026 61.3989 107.436 71.4008 115.396 73.7214C104.139 70.4394 87.0818 59.4496 87.0818 39.9564C87.0818 31.9503 88.4464 20.6531 100.727 10.7166C111.169 2.26846 125.873 0.530587 133.316 0.279035C133.421 0.275487 133.52 0.313696 133.598 0.385181L145.767 11.495C145.929 11.6433 145.781 11.9167 145.571 11.8576C137.719 9.64852 130.457 9.33659 122.56 9.67234C114.373 10.0204 91.4856 15.5899 91.1755 39.9564Z" fill="#3579F4"/>
</svg>
