<svg width="272" height="79" viewBox="0 0 272 79" fill="none" xmlns="http://www.w3.org/2000/svg">
<path d="M28.0734 54.2174H19.5825L23.1013 37.6363L14.0367 54.2174H8.83509L7.11397 37.0606L3.44224 54.2174H0L5.16337 29.8447H14.9164L16.1021 43.5855L23.4455 29.8447H33.275L28.0734 54.2174Z" fill="white"/>
<path d="M31.5061 54.2174L36.6695 29.8447H46.9579C48.5388 29.8447 49.9157 30.011 51.0886 30.3437C52.2871 30.6508 53.2687 31.1753 54.0337 31.9174C54.8241 32.6594 55.4106 33.6318 55.793 34.8344C56.201 36.037 56.405 37.5084 56.405 39.2483C56.405 41.1163 56.1628 42.9458 55.6783 44.737C55.2193 46.5282 54.4416 48.1274 53.3452 49.5347C52.2488 50.9421 50.8082 52.0808 49.0233 52.9508C47.2639 53.7952 45.0838 54.2174 42.483 54.2174H31.5061ZM41.9858 51.5306C42.8273 51.5306 43.5667 51.1852 44.2042 50.4943C44.8671 49.7778 45.4281 48.8823 45.887 47.8076C46.3715 46.7073 46.7667 45.5046 47.0727 44.1996C47.4042 42.8691 47.6591 41.5897 47.8376 40.3614C48.0416 39.1332 48.1819 38.0329 48.2584 37.0606C48.3603 36.0882 48.4113 35.3973 48.4113 34.9879C48.4113 34.1947 48.2456 33.5806 47.9141 33.1456C47.6082 32.685 47.0599 32.4547 46.2695 32.4547H44.4336L40.3412 51.5306H41.9858Z" fill="white"/>
<path d="M76.9177 54.2174H67.9679L67.4324 48.1146H60.3567L57.6412 54.2174H53.9312L65.2141 29.8447H74.2787L76.9177 54.2174ZM61.6189 45.3127H67.1647L66.285 34.8728L61.6189 45.3127Z" fill="white"/>
<path d="M121.512 37.0876C121.589 36.7143 121.628 36.2042 121.628 35.5573C121.628 35.184 121.602 34.8232 121.55 34.4749C121.499 34.1016 121.408 33.7782 121.278 33.5044C121.148 33.2058 120.954 32.9819 120.694 32.8326C120.435 32.6584 120.097 32.5713 119.682 32.5713C119.215 32.5713 118.787 32.6709 118.397 32.8699C118.008 33.069 117.658 33.3303 117.346 33.6537C117.061 33.9523 116.827 34.3131 116.646 34.7361C116.49 35.1343 116.412 35.5573 116.412 36.0052C116.412 36.6521 116.581 37.1498 116.918 37.4981C117.282 37.8465 117.749 38.1326 118.32 38.3566C118.891 38.5805 119.539 38.7671 120.266 38.9164C120.993 39.0657 121.745 39.2399 122.524 39.439C123.172 39.6132 123.821 39.8371 124.47 40.1108C125.119 40.3845 125.69 40.7578 126.183 41.2305C126.702 41.6784 127.117 42.2756 127.428 43.0221C127.74 43.7437 127.895 44.6519 127.895 45.7467C127.895 47.3144 127.571 48.6331 126.922 49.7031C126.273 50.7731 125.378 51.644 124.236 52.3158C123.095 52.9876 121.732 53.4728 120.149 53.7714C118.592 54.07 116.892 54.2193 115.05 54.2193C113.181 54.2193 111.65 54.1074 110.457 53.8834C109.289 53.6346 108.368 53.3733 107.693 53.0996C106.888 52.7761 106.292 52.4029 105.902 51.9799L107.226 46.8665H114.077C114.051 47.0904 114.025 47.4015 113.999 47.7996C113.973 48.1728 113.96 48.4714 113.96 48.6954C113.96 48.9939 113.999 49.305 114.077 49.6285C114.155 49.9519 114.271 50.2505 114.427 50.5242C114.609 50.7979 114.855 51.0219 115.167 51.1961C115.478 51.3702 115.867 51.4573 116.334 51.4573C116.853 51.4573 117.308 51.3454 117.697 51.1214C118.112 50.8975 118.449 50.6238 118.709 50.3003C118.994 49.9519 119.202 49.5787 119.332 49.1806C119.487 48.7576 119.565 48.347 119.565 47.9489C119.565 47.4015 119.423 46.9411 119.137 46.5679C118.878 46.1946 118.514 45.8836 118.047 45.6348C117.58 45.3611 117.035 45.1371 116.412 44.9629C115.815 44.7639 115.193 44.5648 114.544 44.3658C113.921 44.1916 113.259 43.9801 112.559 43.7312C111.884 43.4824 111.261 43.1341 110.69 42.6862C110.119 42.2383 109.639 41.6784 109.25 41.0066C108.887 40.3099 108.705 39.4265 108.705 38.3566C108.705 36.7641 109.12 35.4329 109.951 34.3629C110.807 33.2681 111.871 32.3847 113.143 31.7129C114.44 31.0411 115.854 30.5683 117.385 30.2946C118.916 29.996 120.37 29.8467 121.745 29.8467C123.562 29.8467 125.119 30.0582 126.416 30.4812C127.74 30.8793 128.739 31.3521 129.413 31.8995L127.973 37.0876H121.512Z" fill="white"/>
<path d="M149.846 53.9207H141.438L143.774 43.358H138.986L136.65 53.9207H128.242L133.497 30.2199H141.944L139.648 40.5214H144.396L146.693 30.2199H155.179L149.846 53.9207Z" fill="white"/>
<path d="M161.797 53.9207H153.389L158.644 30.2199H167.091L161.797 53.9207Z" fill="white"/>
<path d="M177.802 43.6939C178.581 43.6939 179.229 43.3829 179.748 42.7608C180.293 42.1388 180.734 41.3798 181.072 40.4841C181.435 39.5883 181.695 38.6552 181.85 37.6847C182.006 36.7143 182.084 35.8683 182.084 35.1467C182.084 34.4749 181.967 33.915 181.733 33.4671C181.5 32.9943 180.994 32.758 180.215 32.758H178.464L176.011 43.6939H177.802ZM175.466 46.0827L173.715 53.9207H165.307L170.562 30.2199H179.554C181.033 30.2199 182.382 30.2946 183.602 30.4439C184.822 30.5932 185.873 30.8918 186.755 31.3396C187.637 31.7875 188.325 32.4345 188.818 33.2805C189.311 34.1016 189.558 35.2089 189.558 36.6023C189.558 37.8962 189.337 39.1279 188.896 40.2974C188.481 41.442 187.793 42.4498 186.833 43.3207C185.899 44.1667 184.679 44.8385 183.174 45.3362C181.669 45.8338 179.839 46.0827 177.685 46.0827H175.466Z" fill="white"/>
<path d="M200.364 43.6939C201.142 43.6939 201.791 43.3829 202.31 42.7608C202.855 42.1388 203.296 41.3798 203.633 40.4841C203.997 39.5883 204.256 38.6552 204.412 37.6847C204.568 36.7143 204.646 35.8683 204.646 35.1467C204.646 34.4749 204.529 33.915 204.295 33.4671C204.062 32.9943 203.556 32.758 202.777 32.758H201.025L198.573 43.6939H200.364ZM198.028 46.0827L196.276 53.9207H187.869L193.124 30.2199H202.115C203.595 30.2199 204.944 30.2946 206.164 30.4439C207.383 30.5932 208.434 30.8918 209.317 31.3396C210.199 31.7875 210.887 32.4345 211.38 33.2805C211.873 34.1016 212.119 35.2089 212.119 36.6023C212.119 37.8962 211.899 39.1279 211.457 40.2974C211.042 41.442 210.355 42.4498 209.394 43.3207C208.46 44.1667 207.241 44.8385 205.735 45.3362C204.23 45.8338 202.401 46.0827 200.247 46.0827H198.028Z" fill="white"/>
<path d="M218.838 53.9207H210.43L215.685 30.2199H224.132L218.838 53.9207Z" fill="white"/>
<path d="M243.096 53.9207H233.987L229.666 36.789L225.851 53.9207H222.348L227.603 30.2199H236.906L240.994 47.5756L244.847 30.2199H248.428L243.096 53.9207Z" fill="white"/>
<path d="M260.439 43.0967H270.521L268.263 53.9207H263.67L262.93 51.532H262.775C262.1 52.2785 261.295 52.913 260.361 53.4355C259.453 53.9581 258.259 54.2193 256.78 54.2193C255.638 54.2193 254.535 54.0451 253.471 53.6968C252.433 53.3235 251.499 52.7512 250.669 51.9799C249.864 51.1836 249.215 50.151 248.722 48.882C248.229 47.613 247.983 46.0827 247.983 44.2911C247.983 42.3503 248.294 40.5089 248.917 38.7671C249.54 37.0254 250.474 35.4951 251.72 34.1763C252.965 32.8326 254.522 31.7751 256.391 31.0037C258.259 30.2324 260.439 29.8467 262.93 29.8467C264.851 29.8467 266.524 30.0582 267.952 30.4812C269.379 30.9042 270.728 31.377 272 31.8995L270.521 39.1404H263.942C263.968 38.8667 264.007 38.5432 264.059 38.17C264.111 37.7967 264.15 37.411 264.176 37.0129C264.202 36.5899 264.228 36.1793 264.254 35.7812C264.28 35.3831 264.293 35.0347 264.293 34.7361C264.293 34.5371 264.28 34.3131 264.254 34.0643C264.228 33.7906 264.163 33.5293 264.059 33.2805C263.955 33.0317 263.8 32.8326 263.592 32.6833C263.384 32.5091 263.086 32.422 262.697 32.422C262.022 32.422 261.399 32.6958 260.828 33.2432C260.283 33.7657 259.79 34.4749 259.349 35.3706C258.908 36.2415 258.519 37.2369 258.181 38.3566C257.87 39.4763 257.597 40.6209 257.364 41.7904C257.156 42.935 256.988 44.0672 256.858 45.1869C256.754 46.2817 256.702 47.2397 256.702 48.0608C256.702 48.3097 256.715 48.6207 256.741 48.9939C256.767 49.3672 256.845 49.7404 256.975 50.1137C257.13 50.462 257.338 50.7731 257.597 51.0468C257.883 51.2956 258.285 51.42 258.804 51.42C259.661 51.42 260.491 50.9721 261.295 50.0763C262.1 49.1806 262.71 47.6876 263.125 45.5975H259.855L260.439 43.0967Z" fill="white"/>
<path d="M92.4577 41.6696C92.6852 58.4891 78.8981 66.3346 72.2606 68.1549C81.648 65.5805 95.8712 56.9601 95.8712 41.6696C95.8712 35.3896 94.7334 26.528 84.4926 18.7338C75.7931 12.1127 63.545 10.7462 57.333 10.5471C57.2351 10.5439 57.1433 10.5774 57.0704 10.64L46.8736 19.3972C46.7529 19.5009 46.863 19.6915 47.0192 19.6499C53.5972 17.898 59.6752 17.6503 66.2868 17.9147C73.114 18.1877 92.1991 22.5565 92.4577 41.6696Z" fill="white"/>
<path d="M96.8747 42.4724C96.5847 65.114 114.152 75.6751 122.609 78.1255C110.648 74.6599 92.5252 63.0556 92.5252 42.4724C92.5252 34.0186 93.975 22.0897 107.023 11.5976C118.117 2.67707 133.74 0.842028 141.649 0.576411C141.761 0.572664 141.865 0.61301 141.949 0.688493L154.878 12.4196C155.05 12.5761 154.893 12.8648 154.67 12.8024C146.327 10.4698 138.611 10.1404 130.221 10.495C121.522 10.8625 97.2042 16.7434 96.8747 42.4724Z" fill="#3579F4"/>
</svg>
