<svg width="41" height="41" viewBox="0 0 41 41" fill="none" xmlns="http://www.w3.org/2000/svg">
<rect width="41" height="41" rx="3" fill="#3579F4"/>
<g clip-path="url(#clip0_58_129)">
<path fill-rule="evenodd" clip-rule="evenodd" d="M20.5002 9.31836C14.325 9.31836 9.31836 14.325 9.31836 20.5002C9.31836 26.6753 14.325 31.682 20.5002 31.682C26.6753 31.682 31.682 26.6753 31.682 20.5002C31.682 14.325 26.6753 9.31836 20.5002 9.31836ZM25.6829 16.9229C25.5152 18.6906 24.7865 22.9816 24.4166 24.9617C24.2601 25.8004 23.9507 26.0808 23.6525 26.1079C23.003 26.1675 22.5101 25.6783 21.8811 25.2664C20.8971 24.6216 20.3408 24.22 19.3857 23.5901C18.2815 22.8623 18.9972 22.4626 19.6261 21.8094C19.7911 21.6379 22.6517 19.0354 22.7077 18.7996C22.7142 18.7698 22.7216 18.6598 22.6555 18.6021C22.5893 18.5443 22.4933 18.5639 22.4244 18.5797C22.3256 18.6021 20.7536 19.641 17.7075 21.6966C17.2612 22.0032 16.8568 22.1523 16.4943 22.1448C16.0955 22.1364 15.3277 21.9193 14.7564 21.733C14.0567 21.5056 13.4994 21.3845 13.5479 20.9987C13.573 20.7974 13.8498 20.5915 14.3791 20.3809C17.6386 18.9608 19.8125 18.0243 20.8999 17.5715C24.0057 16.28 24.6505 16.0554 25.0717 16.0479C25.5991 16.0405 25.7258 16.4757 25.6829 16.9229Z" fill="white"/>
</g>
<defs>
<clipPath id="clip0_58_129">
<rect width="22.3636" height="22.3636" fill="white" transform="translate(9.31836 9.31836)"/>
</clipPath>
</defs>
</svg>
