<svg width="42" height="41" viewBox="0 0 42 41" fill="none" xmlns="http://www.w3.org/2000/svg">
<rect x="0.135742" width="41" height="41" rx="3" fill="#3579F4"/>
<g clip-path="url(#clip0_58_134)">
<path fill-rule="evenodd" clip-rule="evenodd" d="M28.5215 12.5685C26.4287 10.4738 23.6462 9.31929 20.6821 9.31836C14.5741 9.31836 9.60281 14.2887 9.60002 20.3995C9.59909 22.3526 10.1097 24.2591 11.0797 25.9401L9.50684 31.682L15.381 30.1408C16.9996 31.0241 18.8222 31.4891 20.6765 31.49H20.6812C26.7883 31.49 31.7605 26.5188 31.7633 20.4079C31.7652 17.4475 30.6134 14.6623 28.5215 12.5685ZM20.6821 29.618H20.6784C19.0254 29.618 17.4049 29.1735 15.9904 28.334L15.654 28.1346L12.1681 29.0487L13.099 25.6494L12.88 25.3009C11.9575 23.8342 11.4711 22.1392 11.472 20.3995C11.4739 15.3211 15.6065 11.1894 20.6868 11.1894C23.1468 11.1894 25.4596 12.1492 27.1983 13.8899C28.9371 15.6314 29.8941 17.9451 29.8932 20.4061C29.8904 25.4863 25.7587 29.618 20.6821 29.618ZM25.7344 22.7198C25.4577 22.5809 24.0963 21.9109 23.8419 21.8187C23.5885 21.7264 23.404 21.6799 23.2185 21.9566C23.0331 22.2334 22.5038 22.8577 22.3417 23.0431C22.1805 23.2276 22.0184 23.2509 21.7416 23.1121C21.4649 22.9732 20.5722 22.6816 19.5146 21.7376C18.6918 21.0034 18.1355 20.0967 17.9743 19.819C17.8131 19.5413 17.9575 19.3922 18.0954 19.2543C18.2203 19.1304 18.3722 18.931 18.511 18.7689C18.6508 18.6086 18.6964 18.493 18.7896 18.3076C18.8819 18.1231 18.8362 17.961 18.7663 17.8221C18.6964 17.6842 18.1429 16.321 17.9128 15.7665C17.6882 15.2261 17.4599 15.2997 17.2894 15.2913C17.1282 15.2829 16.9437 15.282 16.7582 15.282C16.5737 15.282 16.2737 15.3509 16.0202 15.6286C15.7668 15.9063 15.0512 16.5763 15.0512 17.9386C15.0512 19.3019 16.0435 20.6185 16.1814 20.803C16.3194 20.9875 18.1336 23.7848 20.9114 24.9841C21.572 25.2692 22.0882 25.4397 22.4899 25.5674C23.1533 25.778 23.7571 25.7482 24.2342 25.6774C24.7663 25.5982 25.8724 25.0074 26.1034 24.3607C26.3345 23.714 26.3345 23.1587 26.2647 23.044C26.1957 22.9276 26.0112 22.8586 25.7344 22.7198Z" fill="white"/>
</g>
<defs>
<clipPath id="clip0_58_134">
<rect width="22.3636" height="22.3636" fill="white" transform="translate(9.4541 9.31836)"/>
</clipPath>
</defs>
</svg>
